<svg xmlns="http://www.w3.org/2000/svg" xmlns:xlink="http://www.w3.org/1999/xlink" width="249" height="182" viewBox="0 0 249 182">
  <defs>
    <rect id="acuerdos_hover-a" width="249" height="182" x="0" y="0"/>
  </defs>
  <g fill="none" fill-rule="evenodd">
    <mask id="acuerdos_hover-b" fill="#fff">
      <use xlink:href="#acuerdos_hover-a"/>
    </mask>
    <use fill="#F05A23" xlink:href="#acuerdos_hover-a"/>
    <g fill="#FFF" mask="url(#acuerdos_hover-b)" opacity=".2">
      <path d="M248.345402,38.2315255 C234.125168,38.2315255 226.921676,29.4143258 220.56634,21.6375324 C214.514473,14.2321737 209.289363,7.83610631 198.677684,7.83610631 C188.066004,7.83610631 182.838949,14.2321737 176.789027,21.6375324 C170.431746,29.4143258 163.232145,38.2315255 149.01191,38.2315255 C134.793621,38.2315255 127.592074,29.4143258 121.236738,21.6375324 C115.186816,14.2321737 109.963652,7.83610631 99.3500273,7.83610631 C88.740293,7.83610631 83.5151836,14.2321737 77.467207,21.6375324 C71.1138164,29.4143258 63.9122695,38.2315255 49.6959258,38.2315255 C35.4776367,38.2315255 28.2741445,29.4143258 21.9207539,21.6375324 C15.870832,14.2321737 10.647668,7.83610631 0.0359882812,7.83610631 L0.0359882812,0.23627917 C14.2542773,0.23627917 21.4558242,9.05347882 27.8092148,16.8302723 C33.8591367,24.2375756 39.0842461,30.6316984 49.6959258,30.6316984 C60.3056602,30.6316984 65.5307695,24.2375756 71.5787461,16.8322169 C77.9321367,9.05347882 85.1336836,0.23627917 99.3500273,0.23627917 C113.570262,0.23627917 120.771809,9.05347882 127.127145,16.8322169 C133.175121,24.2375756 138.398285,30.6316984 149.01191,30.6316984 C159.625535,30.6316984 164.850645,24.2375756 170.898621,16.8322169 C177.253957,9.05347882 184.457449,0.23627917 198.677684,0.23627917 C212.895973,0.23627917 220.09752,9.05347882 226.454801,16.8302723 C232.502777,24.2356309 237.729832,30.6316984 248.345402,30.6316984 L248.345402,38.2315255 Z"/>
      <path d="M248.345402,69.260134 C234.125168,69.260134 226.921676,60.4429343 220.56634,52.6661409 C214.514473,45.2607822 209.289363,38.8647148 198.677684,38.8647148 C188.066004,38.8647148 182.838949,45.2607822 176.789027,52.6661409 C170.431746,60.4429343 163.232145,69.260134 149.01191,69.260134 C134.793621,69.260134 127.592074,60.4429343 121.236738,52.6661409 C115.186816,45.2607822 109.963652,38.8647148 99.3500273,38.8647148 C88.740293,38.8647148 83.5151836,45.2607822 77.467207,52.6661409 C71.1138164,60.4429343 63.9122695,69.260134 49.6959258,69.260134 C35.4776367,69.260134 28.2741445,60.4429343 21.9207539,52.6661409 C15.870832,45.2607822 10.647668,38.8647148 0.0359882812,38.8647148 L0.0359882812,31.2648876 C14.2542773,31.2648876 21.4558242,40.0820873 27.8092148,47.8588807 C33.8591367,55.2661841 39.0842461,61.6603068 49.6959258,61.6603068 C60.3056602,61.6603068 65.5307695,55.2661841 71.5787461,47.8608254 C77.9321367,40.0820873 85.1336836,31.2648876 99.3500273,31.2648876 C113.570262,31.2648876 120.771809,40.0820873 127.127145,47.8608254 C133.175121,55.2661841 138.398285,61.6603068 149.01191,61.6603068 C159.625535,61.6603068 164.850645,55.2661841 170.898621,47.8608254 C177.253957,40.0820873 184.457449,31.2648876 198.677684,31.2648876 C212.895973,31.2648876 220.09752,40.0820873 226.454801,47.8588807 C232.502777,55.2642394 237.729832,61.6603068 248.345402,61.6603068 L248.345402,69.260134 Z"/>
      <path d="M248.345402,100.288742 C234.125168,100.288742 226.921676,91.4715428 220.56634,83.6947494 C214.514473,76.2893907 209.289363,69.8933232 198.677684,69.8933232 C188.066004,69.8933232 182.838949,76.2893907 176.789027,83.6947494 C170.431746,91.4715428 163.232145,100.288742 149.01191,100.288742 C134.793621,100.288742 127.592074,91.4715428 121.236738,83.6947494 C115.186816,76.2893907 109.963652,69.8933232 99.3500273,69.8933232 C88.740293,69.8933232 83.5151836,76.2893907 77.467207,83.6947494 C71.1138164,91.4715428 63.9122695,100.288742 49.6959258,100.288742 C35.4776367,100.288742 28.2741445,91.4715428 21.9207539,83.6947494 C15.870832,76.2893907 10.647668,69.8933232 0.0359882812,69.8933232 L0.0359882812,62.2934961 C14.2542773,62.2934961 21.4558242,71.1106958 27.8092148,78.8874892 C33.8591367,86.2947926 39.0842461,92.6889153 49.6959258,92.6889153 C60.3056602,92.6889153 65.5307695,86.2947926 71.5787461,78.8874892 C77.9321367,71.1106958 85.1336836,62.2934961 99.3500273,62.2934961 C113.570262,62.2934961 120.771809,71.1106958 127.127145,78.8874892 C133.175121,86.2947926 138.398285,92.6889153 149.01191,92.6889153 C159.625535,92.6889153 164.850645,86.2947926 170.898621,78.8874892 C177.253957,71.1106958 184.457449,62.2934961 198.677684,62.2934961 C212.895973,62.2934961 220.09752,71.1106958 226.454801,78.8874892 C232.502777,86.2928479 237.729832,92.6889153 248.345402,92.6889153 L248.345402,100.288742 Z"/>
      <path d="M248.345402,131.316184 C234.125168,131.316184 226.921676,122.500929 220.56634,114.722191 C214.514473,107.316832 209.289363,100.920765 198.677684,100.920765 C188.066004,100.920765 182.838949,107.316832 176.789027,114.722191 C170.431746,122.500929 163.232145,131.316184 149.01191,131.316184 C134.793621,131.316184 127.592074,122.500929 121.236738,114.722191 C115.186816,107.316832 109.963652,100.920765 99.3500273,100.920765 C88.740293,100.920765 83.5151836,107.316832 77.467207,114.722191 C71.1138164,122.500929 63.9122695,131.316184 49.6959258,131.316184 C35.4776367,131.316184 28.2741445,122.500929 21.9207539,114.722191 C15.870832,107.316832 10.647668,100.920765 0.0359882812,100.920765 L0.0359882812,93.3228825 C14.2542773,93.3228825 21.4558242,102.138137 27.8092148,109.914931 C33.8591367,117.322234 39.0842461,123.718302 49.6959258,123.718302 C60.3056602,123.718302 65.5307695,117.322234 71.5787461,109.916876 C77.9321367,102.138137 85.1336836,93.3228825 99.3500273,93.3228825 C113.570262,93.3228825 120.771809,102.138137 127.127145,109.916876 C133.175121,117.322234 138.398285,123.718302 149.01191,123.718302 C159.625535,123.718302 164.850645,117.322234 170.898621,109.916876 C177.253957,102.138137 184.457449,93.3228825 198.677684,93.3228825 C212.895973,93.3228825 220.09752,102.138137 226.454801,109.914931 C232.502777,117.32029 237.729832,123.718302 248.345402,123.718302 L248.345402,131.316184 Z"/>
      <path d="M248.345402,162.344793 C234.125168,162.344793 226.921676,153.529538 220.56634,145.750799 C214.514473,138.345441 209.289363,131.949373 198.677684,131.949373 C188.066004,131.949373 182.838949,138.345441 176.789027,145.750799 C170.431746,153.529538 163.232145,162.344793 149.01191,162.344793 C134.793621,162.344793 127.592074,153.529538 121.236738,145.750799 C115.186816,138.345441 109.963652,131.949373 99.3500273,131.949373 C88.740293,131.949373 83.5151836,138.345441 77.467207,145.750799 C71.1138164,153.529538 63.9122695,162.344793 49.6959258,162.344793 C35.4776367,162.344793 28.2741445,153.529538 21.9207539,145.750799 C15.870832,138.345441 10.647668,131.949373 0.0359882812,131.949373 L0.0359882812,124.351491 C14.2542773,124.351491 21.4558242,133.166746 27.8092148,140.943539 C33.8591367,148.350843 39.0842461,154.74691 49.6959258,154.74691 C60.3056602,154.74691 65.5307695,148.350843 71.5787461,140.945484 C77.9321367,133.166746 85.1336836,124.351491 99.3500273,124.351491 C113.570262,124.351491 120.771809,133.166746 127.127145,140.945484 C133.175121,148.350843 138.398285,154.74691 149.01191,154.74691 C159.625535,154.74691 164.850645,148.350843 170.898621,140.945484 C177.253957,133.166746 184.457449,124.351491 198.677684,124.351491 C212.895973,124.351491 220.09752,133.166746 226.454801,140.943539 C232.502777,148.348898 237.729832,154.74691 248.345402,154.74691 L248.345402,162.344793 Z"/>
      <path d="M248.345402,193.373401 C234.125168,193.373401 226.921676,184.558146 220.56634,176.779408 C214.514473,169.374049 209.289363,162.977982 198.677684,162.977982 C188.066004,162.977982 182.838949,169.374049 176.789027,176.779408 C170.431746,184.558146 163.232145,193.373401 149.01191,193.373401 C134.793621,193.373401 127.592074,184.558146 121.236738,176.779408 C115.186816,169.374049 109.963652,162.977982 99.3500273,162.977982 C88.740293,162.977982 83.5151836,169.374049 77.467207,176.779408 C71.1138164,184.558146 63.9122695,193.373401 49.6959258,193.373401 C35.4776367,193.373401 28.2741445,184.558146 21.9207539,176.779408 C15.870832,169.374049 10.647668,162.977982 0.0359882812,162.977982 L0.0359882812,155.380099 C14.2542773,155.380099 21.4558242,164.195354 27.8092148,171.972148 C33.8591367,179.379451 39.0842461,185.775519 49.6959258,185.775519 C60.3056602,185.775519 65.5307695,179.379451 71.5787461,171.974092 C77.9321367,164.195354 85.1336836,155.380099 99.3500273,155.380099 C113.570262,155.380099 120.771809,164.195354 127.127145,171.974092 C133.175121,179.379451 138.398285,185.775519 149.01191,185.775519 C159.625535,185.775519 164.850645,179.379451 170.898621,171.974092 C177.253957,164.195354 184.457449,155.380099 198.677684,155.380099 C212.895973,155.380099 220.09752,164.195354 226.454801,171.972148 C232.502777,179.377506 237.729832,185.775519 248.345402,185.775519 L248.345402,193.373401 Z"/>
    </g>
  </g>
</svg>
