<svg xmlns="http://www.w3.org/2000/svg" xmlns:xlink="http://www.w3.org/1999/xlink" width="249" height="182" viewBox="0 0 249 182">
  <defs>
    <rect id="flujos_hover-a" width="249" height="182" x="0" y="0"/>
  </defs>
  <g fill="none" fill-rule="evenodd">
    <mask id="flujos_hover-b" fill="#fff">
      <use xlink:href="#flujos_hover-a"/>
    </mask>
    <use fill="#F05A23" xlink:href="#flujos_hover-a"/>
    <g fill="#FFF" mask="url(#flujos_hover-b)" opacity=".2">
      <polygon points="0 17 237 17 237 9 0 9"/>
      <polygon points="222.064 .091 234.198 12.5 222 24.972 232.774 25 245 12.5 232.774 0"/>
      <polygon points="0 53 237 53 237 45 0 45"/>
      <polygon points="232.776 62 222 61.972 234.197 49.5 222.061 37.091 232.776 37 245 49.5"/>
      <polygon points="0 90 237 90 237 82 0 82"/>
      <polygon points="232.776 99 222 98.972 234.197 86.5 222.061 74.091 232.776 74 245 86.5"/>
      <polygon points="0 127 237 127 237 119 0 119"/>
      <polygon points="232.776 136 222 135.972 234.197 123.5 222.061 111.091 232.776 111 245 123.5"/>
      <polygon points="0 164 237 164 237 156 0 156"/>
      <polygon points="232.776 172 222 171.972 234.197 159.5 222.061 147.091 232.776 147 245 159.5"/>
    </g>
  </g>
</svg>
