<svg xmlns="http://www.w3.org/2000/svg" xmlns:xlink="http://www.w3.org/1999/xlink" width="249" height="182" viewBox="0 0 249 182">
  <defs>
    <rect id="indicadores_hover-a" width="249" height="182" x="0" y="0"/>
    <polygon id="indicadores_hover-c" points=".001 .172 301.829 .172 301.829 301.999 .001 301.999"/>
  </defs>
  <g fill="none" fill-rule="evenodd">
    <mask id="indicadores_hover-b" fill="#fff">
      <use xlink:href="#indicadores_hover-a"/>
    </mask>
    <use fill="#F05A23" xlink:href="#indicadores_hover-a"/>
    <g mask="url(#indicadores_hover-b)" opacity=".313">
      <g transform="translate(-27 -54)">
        <path fill="#FFF" d="M150.913648,128.458644 C138.417265,128.458644 128.285702,138.587839 128.285702,151.086589 C128.285702,163.580605 138.417265,173.712167 150.913648,173.712167 C163.407663,173.712167 173.539226,163.580605 173.539226,151.086589 C173.539226,138.587839 163.407663,128.458644 150.913648,128.458644 M150.913648,137.671737 C158.308741,137.671737 164.326132,143.689128 164.326132,151.086589 C164.326132,158.481683 158.308741,164.501441 150.913648,164.501441 C143.518554,164.501441 137.498796,158.481683 137.498796,151.086589 C137.498796,143.689128 143.518554,137.671737 150.913648,137.671737"/>
        <path fill="#FFF" d="M150.913648,102.800935 C124.244913,102.800935 102.630124,124.418091 102.630124,151.084459 C102.630124,177.753193 124.244913,199.370349 150.913648,199.370349 C177.580015,199.370349 199.197171,177.753193 199.197171,151.084459 C199.197171,124.418091 177.580015,102.800935 150.913648,102.800935 M150.913648,112.014029 C172.457421,112.014029 189.984077,129.540685 189.984077,151.084459 C189.984077,172.630599 172.457421,190.157255 150.913648,190.157255 C129.369874,190.157255 111.840851,172.630599 111.840851,151.084459 C111.840851,129.540685 129.369874,112.014029 150.913648,112.014029"/>
        <path fill="#FFF" d="M150.913648,77.1434633 C110.077296,77.1434633 76.9721789,110.24858 76.9721789,151.084932 C76.9721789,191.923651 110.077296,225.028768 150.913648,225.028768 C191.749999,225.028768 224.855116,191.923651 224.855116,151.084932 C224.855116,110.24858 191.749999,77.1434633 150.913648,77.1434633 M150.913648,86.356557 C186.603734,86.356557 215.64439,115.394846 215.64439,151.084932 C215.64439,186.777385 186.603734,215.815674 150.913648,215.815674 C115.223562,215.815674 86.1829055,186.777385 86.1829055,151.084932 C86.1829055,115.394846 115.223562,86.356557 150.913648,86.356557"/>
        <path fill="#FFF" d="M150.913648,51.4857547 C95.9073117,51.4857547 51.3142336,96.0788328 51.3142336,151.085169 C51.3142336,206.093872 95.9073117,250.684583 150.913648,250.684583 C205.919984,250.684583 250.513062,206.093872 250.513062,151.085169 C250.513062,96.0788328 205.919984,51.4857547 150.913648,51.4857547 M150.913648,60.6988484 C200.752413,60.6988484 241.302335,101.246403 241.302335,151.085169 C241.302335,200.923934 200.752413,241.471489 150.913648,241.471489 C101.072515,241.471489 60.5273273,200.923934 60.5273273,151.085169 C60.5273273,101.246403 101.072515,60.6988484 150.913648,60.6988484"/>
        <path fill="#FFF" d="M150.913648,25.8280461 C81.7349602,25.8280461 25.6562883,81.906718 25.6562883,151.085405 C25.6562883,220.264093 81.7349602,276.342765 150.913648,276.342765 C220.092335,276.342765 276.171007,220.264093 276.171007,151.085405 C276.171007,81.906718 220.092335,25.8280461 150.913648,25.8280461 M150.913648,35.0411398 C214.898726,35.0411398 266.957913,87.0979602 266.957913,151.085405 C266.957913,215.072851 214.898726,267.129671 150.913648,267.129671 C86.9262023,267.129671 34.8717492,215.072851 34.8717492,151.085405 C34.8717492,87.0979602 86.9262023,35.0411398 150.913648,35.0411398"/>
        <mask id="indicadores_hover-d" fill="#fff">
          <use xlink:href="#indicadores_hover-c"/>
        </mask>
        <path fill="#FFF" d="M150.913648,0.170574219 C67.567343,0.170574219 0.00071015625,67.737207 0.00071015625,151.085879 C0.00071015625,234.432184 67.567343,301.998816 150.913648,301.998816 C234.26232,301.998816 301.828952,234.432184 301.828952,151.085879 C301.828952,67.737207 234.26232,0.170574219 150.913648,0.170574219 M150.913648,9.38366797 C229.047405,9.38366797 292.615859,72.9521211 292.615859,151.085879 C292.615859,229.219637 229.047405,292.78809 150.913648,292.78809 C72.7775227,292.78809 9.21380391,229.219637 9.21380391,151.085879 C9.21380391,72.9521211 72.7775227,9.38366797 150.913648,9.38366797" mask="url(#indicadores_hover-d)"/>
      </g>
    </g>
  </g>
</svg>
